<svg width="28" height="27" viewBox="0 0 28 27" fill="none" xmlns="http://www.w3.org/2000/svg">
<path d="M14.1763 0.500007C7.43386 0.49333 1.76933 5.57531 0.932739 12.1639L2.49609 13.6495C2.5889 7.34731 7.84114 2.15149 14.1326 2.17152C20.6264 2.19189 25.8496 7.43511 25.8315 13.9159C25.8145 20.0631 21.0083 25.1147 14.9799 25.513L16.5382 26.9939C22.6407 25.8845 27.3695 20.5715 27.4974 14.1242C27.6459 6.61888 21.6462 0.505348 14.1763 0.500007Z" fill="black"/>
<path d="M22.0797 14.1776C22.0877 14.6957 21.6778 15.1063 21.1296 15.107C18.8686 15.1107 16.6075 15.111 14.3464 15.107C13.7615 15.106 13.3967 14.8453 13.2795 14.3642C13.2535 14.2574 13.2444 14.1439 13.2441 14.0337C13.2428 11.2803 13.2441 8.52711 13.2431 5.77397C13.2431 5.43379 13.3192 5.12433 13.5589 4.86928C13.9094 4.49705 14.4366 4.50105 14.7784 4.88029C14.9984 5.12433 15.0835 5.41643 15.0832 5.73959C15.0832 7.55265 15.0832 9.36604 15.0832 11.1791C15.0832 11.8635 15.0832 12.5475 15.0845 13.2319C15.0845 13.2639 15.0929 13.2963 15.1009 13.3527H15.6307C17.4641 13.3527 19.2972 13.3524 21.1306 13.3527C21.6995 13.353 22.0721 13.6775 22.0801 14.178L22.0797 14.1776Z" fill="black"/>
<path d="M10.5969 19.4607L9.24917 19.4951L9.35599 23.8777L1.4314 16.3467L0.5 17.3268L8.42459 24.8575L4.03732 24.9693L4.07672 26.3217L10.7675 26.1511L10.5969 19.4604V19.4607Z" fill="#007F5F"/>
</svg>
