<svg width="14" height="14" viewBox="0 0 14 14" fill="none" xmlns="http://www.w3.org/2000/svg">
<path d="M6.97964 0.250003C3.5535 0.246611 0.675108 2.82898 0.25 6.17692L1.04441 6.9318C1.09157 3.72941 3.76045 1.08919 6.95741 1.09937C10.2572 1.10972 12.9113 3.77402 12.9021 7.06717C12.8935 10.1909 10.4512 12.7578 7.38795 12.9602L8.17981 13.7127C11.2808 13.149 13.6837 10.4492 13.7486 7.17303C13.8241 3.35926 10.7754 0.252718 6.97964 0.250003Z" fill="black"/>
<path d="M7.4495 6.78081C7.5445 6.78081 7.63152 6.78081 7.71871 6.78081C8.65036 6.78081 9.58183 6.78081 10.5135 6.78081C10.8025 6.78081 10.9918 6.94586 10.9959 7.20015C11 7.46342 10.7917 7.67207 10.5131 7.67241C9.36418 7.67428 8.21524 7.67445 7.06629 7.67241C6.76892 7.6719 6.58368 7.53925 6.52414 7.2948C6.5109 7.24052 6.50632 7.18301 6.50616 7.12686C6.50548 5.72787 6.50615 4.32871 6.50565 2.92972C6.50565 2.75687 6.54415 2.59961 6.66612 2.47001C6.84407 2.28087 7.11209 2.2829 7.28563 2.47561C7.39742 2.59978 7.44068 2.74821 7.44068 2.91225C7.44051 3.83372 7.44034 4.75501 7.44034 5.67647C7.44034 6.02406 7.44051 6.37181 7.44102 6.7194C7.44102 6.73585 7.44543 6.75214 7.44933 6.78081H7.4495Z" fill="black"/>
<path d="M0.353501 11.9512L1.03832 11.9337L0.984037 9.70671L5.01086 13.5334L5.48415 13.0353L1.45732 9.20866L3.68668 9.15183L3.66666 8.46464L0.266815 8.55132L0.353501 11.9512Z" fill="#FE0000"/>
</svg>
