<svg width="32" height="32" viewBox="0 0 32 32" fill="none" xmlns="http://www.w3.org/2000/svg">
<path d="M19.7733 26.68C19.2133 28.2267 17.7333 29.3334 16 29.3334C14.9467 29.3334 13.9067 28.9067 13.1733 28.1467C12.7467 27.7467 12.4267 27.2134 12.24 26.6667C12.4133 26.6934 12.5867 26.7067 12.7733 26.7334C13.08 26.7734 13.4 26.8134 13.72 26.84C14.48 26.9067 15.2533 26.9467 16.0267 26.9467C16.7867 26.9467 17.5467 26.9067 18.2933 26.84C18.5733 26.8134 18.8533 26.8 19.12 26.76C19.3333 26.7334 19.5467 26.7067 19.7733 26.68Z" fill="white"/>
<path fill-rule="evenodd" clip-rule="evenodd" d="M14.9067 2.81598C13.9043 3.09948 13.0492 3.77102 12.5334 4.69341C9.93342 5.98674 8.13342 8.66674 8.13342 11.7601V15.1334C8.13342 15.6801 7.88009 16.6134 7.60009 17.0934L6.25342 19.3201C5.72009 20.2134 5.60009 21.2001 5.93342 22.1067C6.25342 23.0001 7.01342 23.6934 8.00009 24.0267C10.5868 24.9067 13.3068 25.3334 16.0268 25.3334C18.7468 25.3334 21.4668 24.9067 24.0534 24.0401C24.9868 23.7334 25.7068 23.0267 26.0534 22.1067C26.4001 21.1867 26.3068 20.1734 25.7868 19.3201L24.4534 17.1067C24.2211 16.6974 24.0071 15.9851 23.941 15.4421C23.0306 15.8021 22.0384 16 21 16C16.5817 16 13 12.4183 13 8C13 6.02231 13.7176 4.21224 14.9067 2.81598Z" fill="white"/>
<circle cx="21" cy="8" r="6" fill="#FE0000"/>
</svg>
