<svg width="24" height="24" viewBox="0 0 24 24" fill="none" xmlns="http://www.w3.org/2000/svg">
<path d="M4.6816 9.65998C6.08753 10.4385 7.50904 10.4836 8.82923 9.71575C10.861 8.53444 11.4958 6.69912 10.8922 4.38778H11.1439C13.6389 4.38778 16.1339 4.39172 18.629 4.38496C19.2075 4.38327 19.6746 4.59057 20.0433 5.03898C20.1975 5.22601 20.1992 5.31164 20.0377 5.47782C18.9469 6.60279 17.8572 7.72945 16.7653 8.85329C16.3784 9.25156 15.9869 9.6442 15.5944 10.0368C15.4981 10.1337 15.4858 10.198 15.5983 10.3061C16.2676 10.9506 16.9307 11.6012 17.5872 12.2586C17.7008 12.3724 17.7748 12.342 17.8606 12.2535C18.6557 11.4362 19.4486 10.6165 20.2437 9.79912C20.276 9.76588 20.3211 9.7456 20.3874 9.70166C20.3874 9.78278 20.3874 9.84193 20.3874 9.90108C20.3874 13.3532 20.3835 16.8052 20.3907 20.2573C20.3924 20.9925 20.0538 21.5017 19.4413 21.8392C19.2788 21.9287 19.0766 21.949 18.8896 21.9851C18.7815 22.0059 18.6679 21.9952 18.5566 21.9952C14.5392 21.9952 10.5225 21.9924 6.50513 21.9991C5.98674 21.9997 5.53573 21.8628 5.16824 21.4882C4.85198 21.1654 4.68828 20.7728 4.68327 20.317C4.67881 19.8883 4.68048 19.4591 4.68048 19.0304C4.68048 16.0002 4.68048 12.9701 4.68048 9.93995V9.65941L4.6816 9.65998ZM9.28748 17.3624V17.359C9.99629 17.359 10.7051 17.3551 11.4145 17.3607C11.7597 17.3635 12.0008 17.1697 12.1205 16.8892C12.243 16.603 12.2474 16.2729 12.0927 15.9749C11.9022 15.6082 11.5531 15.5163 11.1923 15.513C9.92724 15.5 8.66219 15.5034 7.39768 15.513C7.20893 15.5147 7.00291 15.549 6.83531 15.6318C6.46559 15.8138 6.30858 16.3123 6.43107 16.7974C6.51237 17.1196 6.84701 17.3579 7.24512 17.3607C7.92609 17.3652 8.60762 17.3618 9.28859 17.3618L9.28748 17.3624ZM9.29638 18.4812C8.60873 18.4812 7.92052 18.4716 7.23343 18.4879C7.07028 18.4919 6.89099 18.5504 6.75124 18.6372C6.44778 18.8253 6.32083 19.3273 6.43831 19.7475C6.5235 20.0528 6.89656 20.3368 7.2518 20.3385C8.61319 20.3441 9.97513 20.3435 11.3365 20.3385C11.6695 20.3373 12.0615 20.0613 12.1428 19.7689C12.3282 19.0997 12.0314 18.4648 11.2352 18.4783C10.5893 18.489 9.94283 18.4806 9.29694 18.4806L9.29638 18.4812ZM16.9786 13.0062C16.7459 12.7797 16.5237 12.5684 16.3065 12.3516C15.875 11.9217 15.448 11.488 15.0153 11.0598C14.9496 10.9951 14.8555 10.9472 14.8032 11.0762C14.5871 11.6085 14.3789 12.1437 14.164 12.6766C14.0075 13.0636 13.8321 13.4433 13.6929 13.8365C13.6456 13.9694 13.6317 14.17 13.7007 14.2714C13.7547 14.3508 13.9591 14.3328 14.0983 14.3435C14.1489 14.3474 14.2052 14.3165 14.2547 14.2922C14.6428 14.103 15.0276 13.9064 15.4179 13.7227C15.9268 13.4833 16.4402 13.2529 16.9797 13.0062H16.9786Z" fill="white"/>
<path d="M10.5447 5.82281C10.577 7.97867 8.84144 9.67824 6.75844 9.65345C4.56797 9.62866 3.00502 7.93698 3.00001 5.82563C2.995 3.70131 4.60973 2.01189 6.78795 2.00006C8.84478 1.98879 10.6015 3.69455 10.5447 5.82281ZM6.34306 4.98908C6.34306 5.34736 6.33638 5.70564 6.34529 6.06391C6.35141 6.30953 6.45275 6.505 6.66656 6.64865C7.06134 6.91454 7.44609 7.19508 7.83251 7.47393C8.01124 7.60237 8.17996 7.70489 8.4049 7.5573C8.62874 7.41027 8.67273 7.09199 8.47005 6.93088C8.12483 6.65654 7.7618 6.40078 7.38484 6.17376C7.21669 6.07236 7.17827 5.96646 7.17994 5.79014C7.18718 5.12991 7.18049 4.46969 7.18383 3.80947C7.18495 3.59653 7.05521 3.47429 6.8943 3.39655C6.75343 3.32839 6.5914 3.37176 6.50453 3.50189C6.42491 3.62188 6.35865 3.77398 6.3503 3.91538C6.32858 4.27253 6.34306 4.63137 6.34306 4.98964V4.98908Z" fill="white"/>
</svg>
