<svg width="28" height="28" viewBox="0 0 28 28" fill="none" xmlns="http://www.w3.org/2000/svg">
<path d="M14.0139 0.500006C21.575 0.505413 27.6476 6.69361 27.4973 14.2902C27.3516 21.6517 21.28 27.552 13.9713 27.5334C6.48179 27.5141 0.341918 21.3121 0.503103 13.7249C0.659219 6.38104 6.71225 0.49291 14.0135 0.500006H14.0139ZM14.0156 25.8441C20.492 25.8627 25.7935 20.5754 25.8114 14.0794C25.8293 7.51947 20.5427 2.21221 13.9693 2.1916C7.55839 2.17132 2.21328 7.50156 2.18928 13.9391C2.16495 20.5004 7.45464 25.8252 14.0152 25.8441H14.0156Z" fill="black"/>
<path d="M11.3369 17.2666L8.42412 14.3538C8.09938 14.029 7.58339 14.029 7.25899 14.3538C6.93426 14.6785 6.93426 15.1945 7.25899 15.5189L10.7463 19.0061C11.071 19.3309 11.5951 19.3309 11.9198 19.0061L20.7417 10.1924C21.0664 9.86763 21.0664 9.35164 20.7417 9.02724C20.417 8.70251 19.901 8.70251 19.5766 9.02724L11.3373 17.2666H11.3369Z" fill="black"/>
</svg>
